# xmcd CD database file
#
# Track frame offsets:
#	150
#	12656
#	28797
#	37176
#	50476
#	61991
#	77945
#	94866
#	105803
#	122060
#	133733
#	150739
#	166492
#	179721
#	191762
#	206448
#	220180
#	232064
#	245184
#	260567
#
# Disc length: 3667 seconds
#
# Revision: 0
# Processed by: cddbd v1.5.1PL0 Copyright (c) Steve Scherf et al.
# Submitted via: CDex 1.51
#
DISCID=2d0e5114
DTITLE=Harry James - Harry James and his Orchestra 1939-1945
DYEAR=2004
DGENRE=Jazz
TTITLE0=Beat Back Boogie
TTITLE1=Spring Will Be So Sad
TTITLE2=Flight of the Bumble Bee
TTITLE3=Trumpet Blues and Cantabile
TTITLE4=Perdido
TTITLE5=Wouldn't It Be Nice
TTITLE6=Rose Room
TTITLE7=The Moon Was Yellow
TTITLE8=Blue Skies
TTITLE9=There They Go
TTITLE10=Things Ain't What They Used To Be
TTITLE11=Lover
TTITLE12=The Continental
TTITLE13=Manhattan
TTITLE14=Sleepy Lagoon
TTITLE15=In The Still Of The Night
TTITLE16=Moonlight Bay
TTITLE17=Midnight Sun
TTITLE18=Moanin' Low
TTITLE19=Bye Bye Blues
EXTD=YEAR: 2004
EXTT0=
EXTT1=
EXTT2=
EXTT3=
EXTT4=
EXTT5=
EXTT6=
EXTT7=
EXTT8=
EXTT9=
EXTT10=
EXTT11=
EXTT12=
EXTT13=
EXTT14=
EXTT15=
EXTT16=
EXTT17=
EXTT18=
EXTT19=
PLAYORDER=
